<?xml version="1.0" encoding="UTF-8"?>
<!DOCTYPE svg PUBLIC "-//W3C//DTD SVG 1.1//EN" "http://www.w3.org/Graphics/SVG/1.1/DTD/svg11.dtd">
<!-- Creator: CorelDRAW 2020 (64-Bit) -->
<svg xmlns="http://www.w3.org/2000/svg" xml:space="preserve" width="6673px" height="1665px" version="1.1" style="shape-rendering:geometricPrecision; text-rendering:geometricPrecision; image-rendering:optimizeQuality; fill-rule:evenodd; clip-rule:evenodd"
viewBox="0 0 5432.6 1355.49"
 xmlns:xlink="http://www.w3.org/1999/xlink"
 xmlns:xodm="http://www.corel.com/coreldraw/odm/2003">
 <defs>
  <style type="text/css">
   <![CDATA[
    .fil1 {fill:black}
    .fil0 {fill:#39B980}
   ]]>
  </style>
 </defs>
 <g id="Слой_x0020_1">
  <metadata id="CorelCorpID_0Corel-Layer"/>
  <g id="_2260300311152">
   <path class="fil0" d="M759.42 333.95l-178.85 0 -238.57 587.12 153.04 0 174.96 -453.46 174.95 453.46 153.04 0 -238.57 -587.12zm-154.1 1018.59l-1.21 -0.12 -0.1 -0.02 -0.09 -0.01 -0.1 -0.01 -0.09 -0.01c-89.94,-9.03 -176.41,-36.23 -254.46,-78.87 -150.65,-82.28 -269.89,-221.95 -321.98,-399.46 -52.11,-177.55 -27.3,-359.45 54.93,-510 42.33,-77.5 99.85,-146.7 169.91,-202.71l1.37 -1.14c0.06,-0.04 0.1,-0.08 0.16,-0.13 103.71,-85.03 230.67,-141.64 368.2,-159.43 0.7,-0.09 5.23,-0.54 5.95,-0.63l57.68 141.95c-0.86,0.05 -5.53,0.45 -6.38,0.51 -122.66,7.62 -236.47,53.73 -328.03,127.34 -1.43,1.16 -2.88,2.32 -4.31,3.49 -2.29,1.89 -4.57,3.79 -6.84,5.7l-0.13 0.13 -0.17 0.13 -0.12 0.1 -0.11 0.09 -0.12 0.1c-0.59,0.51 -1.18,0.99 -1.78,1.46 -51.95,42.81 -94.75,94.99 -126.53,153.16 -64.23,117.59 -83.58,259.72 -42.86,398.5 40.74,138.8 133.79,247.91 251.28,312.09 62.26,34 131.41,55.43 203.29,62.02 156.51,12.87 304.03,-37.46 416.89,-129.98 5.49,-4.5 10.9,-9.1 16.22,-13.8l57.77 142.19c-140.12,107.3 -319.16,164.31 -508.24,147.36z"/>
   <path class="fil1" d="M2073.13 233.46l-112.45 0 0 657.35 112.45 0 0 -657.35zm836.56 643.5l0 -462.74 75.24 0 0 65.74c29.41,-51.9 78.42,-77.85 147.04,-77.85 51.9,0 95.43,16.73 130.6,50.17 35.18,33.45 52.76,81.59 52.76,144.44l0 280.24 -76.97 0 0 -257.75c0,-46.13 -11.25,-82.17 -33.73,-108.12 -21.35,-24.79 -50.46,-37.19 -87.37,-37.19 -38.63,0 -70.05,13.55 -94.28,40.66 -24.21,26.52 -36.32,61.4 -36.32,104.65l0 257.75 -76.97 0zm879.96 -462.74l74.38 0 0 462.74 -74.38 0 0 -66.59c-42.1,51.88 -97.17,77.83 -165.21,77.83 -66.3,0 -121.67,-23.34 -166.06,-70.05 -43.82,-47.29 -65.73,-105.81 -65.73,-175.59 0,-69.76 21.91,-126.85 65.73,-171.25 43.81,-45.56 99.17,-68.33 166.06,-68.33 67.47,0 122.54,26.52 165.21,79.57l0 -68.33zm6.05 230.94c0,-47.28 -15.28,-87.65 -45.84,-121.09 -29.98,-33.44 -69.19,-50.17 -117.63,-50.17 -48.44,0 -87.65,16.73 -117.63,50.17 -29.41,32.87 -44.12,73.52 -44.12,121.96 0,47.28 14.71,87.93 44.12,121.94 30.56,32.88 69.77,49.31 117.63,49.31 48.44,0 87.65,-16.43 117.63,-49.31 30.56,-34.01 45.84,-74.95 45.84,-122.81zm306.51 242.18c-77.83,0 -134.06,-34.02 -168.65,-102.06l58.81 -40.66c27.1,49.6 64.58,74.39 112.44,74.39 24.79,0 45.27,-6.63 61.4,-19.89 15.58,-12.69 23.37,-28.26 23.37,-46.71 0,-25.37 -14.71,-46.13 -44.12,-62.27 -11.53,-6.35 -30.27,-15 -56.22,-25.95 -29.41,-12.69 -48.73,-21.63 -57.95,-26.82 -46.13,-25.37 -69.19,-62.28 -69.19,-110.71 0,-36.9 13.26,-67.46 39.78,-91.68 27.1,-24.22 62.85,-36.32 107.25,-36.32 30.56,0 58.53,6.33 83.9,19.02 27.1,13.26 47.28,31.71 60.54,55.35l-51.89 45.85c-23.06,-36.33 -55.64,-54.5 -97.74,-54.5 -21.33,0 -38.34,5.77 -51.03,17.31 -11.53,10.95 -17.3,24.8 -17.3,41.52 0,25.36 12.69,44.1 38.06,56.21l52.77 24.22c27.09,11.54 47.28,20.76 60.54,27.68 52.47,27.68 78.71,66.6 78.71,116.77 0,38.63 -15.29,71.5 -45.85,98.6 -30.56,27.1 -69.76,40.65 -117.63,40.65zm283.17 -540.59c-16.72,0 -30.56,-5.48 -41.52,-16.42 -10.96,-10.96 -16.43,-24.51 -16.43,-40.66 0,-16.14 5.47,-29.41 16.43,-39.79 10.96,-10.95 24.8,-16.43 41.52,-16.43 15.57,0 28.83,5.48 39.79,16.43 10.96,10.38 16.43,23.65 16.43,39.79 0,16.15 -5.47,29.7 -16.43,40.66 -10.96,10.94 -24.22,16.42 -39.79,16.42zm37.2 530.21l-76.98 0 0 -462.74 76.98 0 0 462.74zm422.4 -462.74l85.63 0 -195.47 518.96c-35.18,93.41 -87.07,140.12 -155.69,140.12 -29.41,0 -53.34,-5.77 -71.79,-17.3l8.65 -68.33c20.76,9.22 39.5,13.84 56.22,13.84 38.64,0 69.2,-27.39 91.69,-82.17l18.16 -44.97 -200.67 -460.15 89.09 0 147.04 354.62 127.14 -354.62zm513.23 0l74.39 0 0 462.74 -74.39 0 0 -66.59c-42.09,51.88 -97.15,77.83 -165.2,77.83 -66.31,0 -121.66,-23.34 -166.06,-70.05 -43.83,-47.29 -65.74,-105.81 -65.74,-175.59 0,-69.76 21.91,-126.85 65.74,-171.25 43.82,-45.56 99.17,-68.33 166.06,-68.33 67.47,0 122.53,26.52 165.2,79.57l0 -68.33zm6.06 230.94c0,-47.28 -15.28,-87.65 -45.84,-121.09 -29.98,-33.44 -69.2,-50.17 -117.63,-50.17 -48.44,0 -87.65,16.73 -117.63,50.17 -29.41,32.87 -44.12,73.52 -44.12,121.96 0,47.28 14.71,87.93 44.12,121.94 30.56,32.88 69.77,49.31 117.63,49.31 48.43,0 87.65,-16.43 117.63,-49.31 30.56,-34.01 45.84,-74.95 45.84,-122.81zm-3605.25 10.38c0,40.66 -12.97,74.4 -38.92,102.07 -25.95,27.67 -66.17,41.52 -106.83,41.52 -40.65,0 -73.75,-13.62 -99.46,-41.52 -25.32,-27.46 -38.06,-61.41 -38.06,-102.07 0,-39.78 12.74,-73.73 38.06,-101.19 25.71,-27.9 58.81,-41.52 99.46,-41.52 40.66,0 80.88,13.84 106.83,41.52 25.95,27.68 38.92,61.41 38.92,101.19l0 0zm-2.59 -190.78c-41.93,-36.17 -93.41,-54.86 -153.09,-54.86 -66.61,0 -130.19,23.36 -174.29,69.2 -44.11,45.83 -65.74,104.66 -65.74,174.71 0,70.07 21.63,129.76 65.74,177.32 44.1,47.57 106.82,70.93 174.29,70.93 61.41,0 106.96,-17.75 153.09,-54.62l0 43.37 107.25 0 0 -469.66 -107.25 0 0 43.61zm472.72 -99.83c40.65,0 70.93,-29.41 70.93,-70.93 0,-40.65 -30.28,-70.93 -70.93,-70.93 -40.65,0 -72.65,30.28 -72.65,70.93 0,41.52 31.13,70.93 72.65,70.93zm55.36 56.22l-113.31 0 0 469.66 113.31 0 0 -469.66zm337.66 -104.66c20.76,0 45.83,6.06 75.24,19.03l35.47 -88.22c-41.52,-21.63 -83.91,-32.01 -126.29,-32.01 -111.57,0 -186.83,65.74 -186.83,184.23l0 21.63 -74.38 0 0 95.14 74.38 0 0 374.52 112.45 0 0 -374.52 147.04 0 0 -95.14 -147.04 0 0 -19.03c0,-55.36 32,-85.63 89.96,-85.63z"/>
  </g>
 </g>
</svg>
